<svg xmlns="http://www.w3.org/2000/svg" width="30" height="42" viewBox="0 0 30 42"><g fill="none" fill-rule="evenodd" transform="scale(1.3125)"><path d="M22 11c0 1.42-.226 2.585-.677 3.496l-7.465 15.117c-.218.43-.543.77-.974 1.016-.43.246-.892.37-1.384.37-.492 0-.954-.124-1.384-.37-.43-.248-.75-.587-.954-1.017L1.677 14.496C1.227 13.586 1 12.42 1 11c0-2.76 1.025-5.117 3.076-7.07C6.126 1.977 8.602 1 11.5 1c2.898 0 5.373.977 7.424 2.93C20.974 5.883 22 8.24 22 11z" stroke="#ffffff" stroke-width=".6" fill="#4182c3" fill-rule="nonzero"/><path transform="translate(11.5 10)  scale(0.006 -0.006) translate(-640, -768)" d="M1188 988l-292 -292v-824q0 -46 -33 -79t-79 -33t-79 33t-33 79v384h-64v-384q0 -46 -33 -79t-79 -33t-79 33t-33 79v824l-292 292q-28 28 -28 68t28 68q29 28 68.5 28t67.5 -28l228 -228h368l228 228q28 28 68 28t68 -28q28 -29 28 -68.5t-28 -67.5zM864 1152 q0 -93 -65.5 -158.5t-158.5 -65.5t-158.5 65.5t-65.5 158.5t65.5 158.5t158.5 65.5t158.5 -65.5t65.5 -158.5z" fill="#ffffff"/></g></svg>