<svg xmlns="http://www.w3.org/2000/svg" width="29" height="40" viewBox="0 0 29 40"><g fill="none" fill-rule="evenodd" transform="scale(1.25)"><path d="M22 11c0 1.42-.226 2.585-.677 3.496l-7.465 15.117c-.218.43-.543.77-.974 1.016-.43.246-.892.37-1.384.37-.492 0-.954-.124-1.384-.37-.43-.248-.75-.587-.954-1.017L1.677 14.496C1.227 13.586 1 12.42 1 11c0-2.76 1.025-5.117 3.076-7.07C6.126 1.977 8.602 1 11.5 1c2.898 0 5.373.977 7.424 2.93C20.974 5.883 22 8.24 22 11z" stroke="#ffffff" stroke-width=".6" fill="#5eaddd" fill-rule="nonzero"/><path transform="translate(11.5 10)  scale(0.006 -0.006) translate(-640, -768)" d="M1280 137q0 -109 -62.5 -187t-150.5 -78h-854q-88 0 -150.5 78t-62.5 187q0 85 8.5 160.5t31.5 152t58.5 131t94 89t134.5 34.5q131 -128 313 -128t313 128q76 0 134.5 -34.5t94 -89t58.5 -131t31.5 -152t8.5 -160.5zM1024 1024q0 -159 -112.5 -271.5t-271.5 -112.5 t-271.5 112.5t-112.5 271.5t112.5 271.5t271.5 112.5t271.5 -112.5t112.5 -271.5z" fill="#ffffff"/></g></svg>